<?xml version="1.0" encoding="UTF-8"?>
<svg width="48px" height="34px" viewBox="0 0 48 34" version="1.1" xmlns="http://www.w3.org/2000/svg" xmlns:xlink="http://www.w3.org/1999/xlink">
    <!-- Generator: Sketch 52.5 (67469) - http://www.bohemiancoding.com/sketch -->
    <title>Icons/Mitgliedschaft/restaurant</title>
    <desc>Created with Sketch.</desc>
    <g id="MODULE-OVERVIEW" stroke="none" stroke-width="1" fill="none" fill-rule="evenodd">
        <g id="Module_Overview_page3" transform="translate(-723.000000, -7628.000000)" fill="#000000">
            <g id="list-Vorteile-2cols" transform="translate(217.000000, 7445.000000)">
                <g id="rechts" transform="translate(506.000000, 89.000000)">
                    <g id="04-vorteil" transform="translate(0.000000, 87.000000)">
                        <g id="1">
                            <g id="Icons/Mitgliedschaft/restaurant">
                                <g id="Group" transform="translate(0.000000, 7.200000)">
                                    <path d="M7.39867717,28.1538133 C7.43899213,27.5045867 7.48144882,26.8524978 7.56485039,26.1989156 C7.72371654,24.6402489 8.06551181,23.0815822 8.41310236,21.5576356 C8.6304252,20.7984 8.86173228,20.0511111 9.09959055,19.3180089 C9.40988976,18.6050667 9.71288189,17.8952356 10.0129764,17.2012089 C10.6980787,15.8450133 11.4606614,14.5791644 12.3719055,13.5185244 C12.5907402,13.2459911 12.8036535,12.9799289 13.0137953,12.7146133 C13.2546772,12.4789156 13.4931654,12.24832 13.7288819,12.0192178 C14.2155591,11.5825422 14.6386142,11.1141333 15.128189,10.7634489 C16.0965039,10.0527467 16.9586142,9.37751111 17.8339528,8.95825778 C18.6777953,8.49482667 19.4030866,8.08938667 20.0551811,7.86165333 C21.3307717,7.35342222 22.056189,7.09744 22.056189,7.09744 C22.056189,7.09744 21.4369764,7.58190222 20.3551496,8.36764444 C19.7946457,8.73064889 19.2069291,9.29948444 18.5005354,9.87927111 C17.7694488,10.4344178 17.1012283,11.2282489 16.3137008,11.9938311 C15.9169764,12.3813511 15.6097008,12.8729067 15.2364094,13.3233956 C15.0534803,13.5511289 14.8675276,13.7853333 14.6786772,14.0202844 C14.519811,14.2783822 14.3595591,14.5385956 14.1948976,14.8025422 C13.4973228,15.8239822 12.976252,17.0248711 12.431748,18.2451733 C12.2115276,18.87984 11.9824882,19.5248356 11.7525669,20.1782933 C11.5952126,20.8593778 11.4202205,21.5446933 11.2284724,22.22864 C10.9429921,23.6312533 10.6612913,25.06112 10.5433701,26.5359111 C10.4577008,27.0694044 10.4146142,27.61024 10.3691339,28.1510756 C22.2116535,28.1539378 31.3801575,28.1596622 44.2071181,28.1596622 C44.2495748,27.6043911 44.2743937,27.0433956 44.2743937,26.4751822 C44.2743937,15.8045689 36.3992441,7.01804444 26.2743937,5.85411556 C26.9257323,5.24819556 27.3371969,4.39089778 27.3371969,3.43578667 C27.3342992,1.60744889 25.8353386,0.124071111 23.9821102,0.124071111 C22.128252,0.124071111 20.624378,1.60744889 20.624378,3.43952 C20.624378,4.39376 21.0357165,5.25118222 21.6907087,5.85697778 C11.5620787,7.02090667 3.69146457,15.8075556 3.69146457,26.4781689 C3.69146457,27.04352 3.71262992,27.6015289 3.75445669,28.1540622 C5.00611024,28.1538133 6.2144252,28.1538133 7.39867717,28.1538133 Z" id="Shape" fill-rule="nonzero"></path>
                                    <polygon id="Rectangle-path" fill-rule="nonzero" points="0 29.3856889 47.9648504 29.3856889 47.9648504 33.5657778 0 33.5657778"></polygon>
                                </g>
                            </g>
                        </g>
                    </g>
                </g>
            </g>
        </g>
    </g>
</svg>