<?xml version="1.0" encoding="UTF-8"?>
<svg width="40px" height="48px" viewBox="0 0 40 48" version="1.1" xmlns="http://www.w3.org/2000/svg" xmlns:xlink="http://www.w3.org/1999/xlink">
    <!-- Generator: Sketch 52.5 (67469) - http://www.bohemiancoding.com/sketch -->
    <title>Icons/Mitgliedschaft/tickets</title>
    <desc>Created with Sketch.</desc>
    <g id="MODULE-OVERVIEW" stroke="none" stroke-width="1" fill="none" fill-rule="evenodd">
        <g id="Module_Overview_page3" transform="translate(-222.000000, -7536.000000)" fill="#000000">
            <g id="list-Vorteile-2cols" transform="translate(217.000000, 7445.000000)">
                <g id="links" transform="translate(1.000000, 89.000000)">
                    <g id="01-vorteil">
                        <g id="1">
                            <g id="Icons/Mitgliedschaft/tickets" transform="translate(0.000000, 2.000000)">
                                <g id="Group" transform="translate(4.000000, 0.000000)">
                                    <polygon id="Shape" fill-rule="nonzero" points="23.3684211 11.9208791 23.1578947 11.8681319 23.1578947 11.7626374"></polygon>
                                    <path d="M39.7894737,21.9956044 L22.6842105,47.8945055 L17.8947368,44.7296703 L18.2631579,44.1494505 C18.8421053,43.2527473 19.0526316,42.1450549 18.8421053,41.0901099 C18.6315789,40.0351648 18,39.0857143 17.1052632,38.5054945 C16.2105263,37.9252747 15.1052632,37.7142857 14.0526316,37.9252747 C13,38.1362637 12.0526316,38.7692308 11.4736842,39.6659341 L11.1052632,40.1934066 L6.31578947,37.0285714 L20.1578947,16.0879121 L23.4210526,11.1296703 L24.6315789,11.9208791 L25.4210526,12.4483516 L25.7894737,12.7120879 L28.2105263,14.3472527 L27.9473684,14.8747253 C27.3684211,15.7714286 27.1578947,16.8791209 27.3684211,17.9340659 C27.5789474,18.989011 28.2105263,19.9384615 29.1052632,20.5186813 C30,21.0989011 31.0526316,21.3098901 32.1578947,21.0989011 C33.2105263,20.8879121 34.1578947,20.2549451 34.7368421,19.3582418 L35.1052632,18.8307692 L39.7894737,21.9956044 Z M32.7368421,29.5384615 L33.4736842,28.4307692 L31.6842105,27.2175824 L30.9473684,28.3252747 L32.7368421,29.5384615 Z M29.8421053,27.6395604 L30.5789474,26.5318681 L28.7894737,25.3186813 L28.0526316,26.4263736 L29.8421053,27.6395604 Z M27,25.6879121 L27.7368421,24.5802198 L25.9473684,23.367033 L25.2105263,24.4747253 L27,25.6879121 Z M24.1052632,23.789011 L24.8421053,22.6813187 L23.0526316,21.4681319 L22.3157895,22.5758242 L24.1052632,23.789011 Z M21.9473684,20.7824176 L20.1578947,19.5692308 L19.4210526,20.6769231 L21.2105263,21.8901099 L21.9473684,20.7824176 Z" id="Shape" fill-rule="nonzero"></path>
                                    <path d="M9.36842105,10.8659341 L9.68421053,9.6 L7.57894737,9.01978022 L7.21052632,10.2857143 L9.36842105,10.8659341 Z M16,12.7120879 L16.3157895,11.4461538 L14.2105263,10.8659341 L13.8421053,12.1318681 L16,12.7120879 Z M23.3684211,9.01978022 L11.4210526,26.7956044 L10.6842105,27.956044 C10.6842105,27.956044 10.6842105,27.956044 10.6315789,27.956044 C8.47368421,27.3758242 6.31578947,28.6945055 5.68421053,30.8043956 L5.52631579,31.4373626 L0,29.9076923 L8.15789474,0 L13.6842105,1.52967033 L13.5263158,2.16263736 C13.2631579,3.21758242 13.3684211,4.32527473 13.8947368,5.22197802 C14.4210526,6.17142857 15.3157895,6.85714286 16.3684211,7.12087912 C17.4210526,7.38461538 18.4736842,7.27912088 19.4210526,6.75164835 C20.3684211,6.22417582 21.0526316,5.32747253 21.3157895,4.32527473 L21.4736842,3.69230769 L27,5.22197802 L25.5263158,10.6549451 L23.3684211,9.01978022 Z M13.0526316,10.5494505 L10.9473684,9.96923077 L10.5789474,11.2351648 L12.6842105,11.8153846 L13.0526316,10.5494505 Z M17.6315789,11.8153846 L17.2631579,13.0813187 L19.3684211,13.6615385 L19.7368421,12.3956044 L17.6315789,11.8153846 Z" id="Shape" fill-rule="nonzero"></path>
                                </g>
                            </g>
                        </g>
                    </g>
                </g>
            </g>
        </g>
    </g>
</svg>