<?xml version="1.0" encoding="UTF-8"?>
<svg width="45px" height="48px" viewBox="0 0 45 48" version="1.1" xmlns="http://www.w3.org/2000/svg" xmlns:xlink="http://www.w3.org/1999/xlink">
    <!-- Generator: Sketch 52.5 (67469) - http://www.bohemiancoding.com/sketch -->
    <title>Icons/Mitgliedschaft/bibliothek</title>
    <desc>Created with Sketch.</desc>
    <g id="MODULE-OVERVIEW" stroke="none" stroke-width="1" fill="none" fill-rule="evenodd">
        <g id="Module_Overview_page3" transform="translate(-220.000000, -7713.000000)" fill="#000000">
            <g id="list-Vorteile-2cols" transform="translate(217.000000, 7445.000000)">
                <g id="links" transform="translate(1.000000, 89.000000)">
                    <g id="03-vorteil" transform="translate(0.000000, 178.000000)">
                        <g id="1">
                            <g id="Icons/Mitgliedschaft/bibliothek" transform="translate(0.000000, 1.000000)">
                                <path d="M24.8063955,5.45220866e-06 L42.8420738,11.542926 L42.8420738,19.0130962 L42.2070441,19.379959 L46.4,22.0635212 L46.4,29.5336914 L41.2509153,32.5097696 L41.2509153,36.9546679 L22.1397033,48 L5.34821752,37.1039592 C2.065308,34.9734195 1.15175897,30.6935993 4.53288979,28.7392798 L7.96361541,26.7564652 C7.1132764,24.7734523 7.51763477,22.5693474 9.68199422,21.3182836 L9.98871522,21.1407061 L6.9393987,19.1621839 C3.65648918,17.0316441 2.74294015,12.7520221 6.12426364,10.7975045 L24.8064182,0 L24.8063955,5.45220866e-06 Z M26.1849865,5.01469915 L33.1059277,9.75035377 L28.7739048,12.4948023 L21.8531117,7.759341 L26.184937,5.01469915 L26.1849865,5.01469915 Z M39.5009834,33.5207295 L27.2887287,40.5789606 L25.2327062,39.2670353 L22.1968073,40.8822075 L5.91880712,31.0532136 C3.99329015,29.8903764 3.87581683,34.087442 5.73578608,35.277798 L22.212778,45.8229643 L39.5010022,35.8881975 L39.5010022,33.5207593 L39.5009834,33.5207295 Z M27.4017608,34.149275 L44.6501175,24.3206776 L44.6501175,28.4672062 L27.3618933,38.4017747 L10.8849014,27.8568067 C9.02493114,26.6664557 9.1410459,22.4713132 11.0679224,23.6322223 L27.401747,34.1492849 L27.4017608,34.149275 Z M24.7332704,23.8400406 L41.0923889,13.8937746 L41.0923889,17.946441 L24.7348513,28.0252452 L7.32702457,17.3362397 C5.44585588,16.1810108 5.58316909,11.9507462 7.51024026,13.111462 L24.733303,23.8400704 L24.7332704,23.8400406 Z" id="Shape"></path>
                            </g>
                        </g>
                    </g>
                </g>
            </g>
        </g>
    </g>
</svg>