<?xml version="1.0" encoding="UTF-8"?>
<svg width="48px" height="37px" viewBox="0 0 48 37" version="1.1" xmlns="http://www.w3.org/2000/svg" xmlns:xlink="http://www.w3.org/1999/xlink">
    <!-- Generator: Sketch 52.5 (67469) - http://www.bohemiancoding.com/sketch -->
    <title>Icons/Mitgliedschaft/events</title>
    <desc>Created with Sketch.</desc>
    <g id="MODULE-OVERVIEW" stroke="none" stroke-width="1" fill="none" fill-rule="evenodd">
        <g id="Module_Overview_page3" transform="translate(-724.000000, -7712.000000)" fill="#000000">
            <g id="list-Vorteile-2cols" transform="translate(217.000000, 7445.000000)">
                <g id="rechts" transform="translate(506.000000, 89.000000)">
                    <g id="04-vorteil-copy" transform="translate(1.000000, 167.000000)">
                        <g id="1">
                            <g id="Icons/Mitgliedschaft/events" transform="translate(0.000000, 5.000000)">
                                <g id="MASKS" transform="translate(0.000000, 5.600000)">
                                    <path d="M47.0746988,10.925 C46.8433735,10.695 46.5542169,10.58 46.2650602,10.695 C44.7036145,11.04 43.0843373,11.385 41.6385542,10.8675 L30.0144578,6.6125 C28.3951807,6.095 27.0650602,5.06 26.0819277,3.6225 C25.9084337,3.335 25.5614458,3.22 25.2722892,3.2775 C24.9253012,3.335 24.6939759,3.5075 24.5783133,3.8525 L24.4626506,4.14 C24.346988,2.4725 24.2891566,1.3225 24.2891566,1.15 C24.2891566,0.8625 24.0578313,0.575 23.826506,0.46 C23.5373494,0.345 23.1903614,0.345 22.9590361,0.5175 C21.6289157,1.38 20.2409639,2.3 18.7373494,2.3575 L6.36144578,2.53 C4.68433735,2.5875 3.00722892,2.1275 1.61927711,1.15 C1.33012048,0.9775 0.98313253,0.92 0.693975904,1.0925 C0.404819277,1.265 0.231325301,1.5525 0.231325301,1.84 L0.462650602,20.2975 L0.462650602,20.47 C0.462650602,21.2175 0.520481928,21.965 0.636144578,22.3675 C2.08192771,27.715 6.99759036,31.3375 12.8385542,31.3375 C14.9204819,31.3375 16.9445783,30.705 18.7951807,29.6125 C20.1253012,32.43 22.6120482,34.6725 25.7927711,35.9375 C27.0072289,36.3975 28.3373494,36.6275 29.7253012,36.6275 C33.6578313,36.6275 37.6481928,34.73 39.7879518,31.625 C42.7373494,27.37 47.2481928,12.4775 47.4216867,11.845 C47.3638554,11.4425 47.3060241,11.0975 47.0746988,10.925 Z M17.060241,10.6375 C17.8698795,10.6375 18.5060241,11.27 18.5060241,12.075 C18.5060241,12.88 17.8698795,13.5125 17.060241,13.5125 C16.2506024,13.5125 15.6144578,12.88 15.6144578,12.075 C15.6144578,11.27 16.2506024,10.6375 17.060241,10.6375 Z M7.51807229,10.695 C8.32771084,10.695 8.96385542,11.3275 8.96385542,12.1325 C8.96385542,12.9375 8.32771084,13.57 7.51807229,13.57 C6.70843373,13.57 6.07228916,12.9375 6.07228916,12.1325 C6.07228916,11.3275 6.70843373,10.695 7.51807229,10.695 Z M18.3903614,19.895 C16.4240964,24.265 8.55903614,24.495 6.30361446,20.24 C6.07228916,19.665 6.07228916,19.4925 6.07228916,19.4925 C6.07228916,19.4925 6.70843373,20.125 7.92289157,20.815 C10.1783133,22.2525 14.8626506,21.735 17.0024096,20.47 C18.0433735,19.895 18.7373494,19.09 18.7373494,19.09 C18.7373494,19.09 18.5638554,19.4925 18.3903614,19.895 Z M38.226506,30.5325 C35.4506024,34.5575 29.8987952,35.5925 26.2554217,34.2125 C23.3638554,33.12 21.1662651,31.05 20.0674699,28.52 C22.0915663,26.91 23.653012,24.6675 24.2313253,22.2525 C24.9253012,19.435 24.8674699,13.3975 24.6361446,8.4525 L25.6192771,5.75 C26.660241,6.8425 27.9903614,7.705 29.4361446,8.165 L41.060241,12.4775 C42.4481928,12.9375 43.8361446,12.88 45.2240964,12.65 C43.9518072,16.5025 40.4819277,27.1975 38.226506,30.5325 Z" id="Shape" fill-rule="nonzero"></path>
                                    <ellipse id="Oval" fill-rule="nonzero" transform="translate(36.844679, 19.748162) rotate(-71.898436) translate(-36.844679, -19.748162) " cx="36.8446786" cy="19.7481622" rx="1.4457721" ry="1.43748903"></ellipse>
                                    <path d="M23.9421687,27.025 C22.7277108,27.255 21.860241,27.83 21.860241,27.83 C21.860241,27.83 22.1493976,27.485 22.4963855,27.1975 C25.7927711,23.69 33.3108434,25.99 34.0626506,30.705 C34.0626506,31.3375 34.0048193,31.4525 34.0048193,31.4525 C34.0048193,31.4525 33.6,30.6475 32.6746988,29.6125 C30.9975904,27.485 26.3710843,26.5075 23.9421687,27.025 Z" id="Shape" fill-rule="nonzero"></path>
                                    <ellipse id="Oval" fill-rule="nonzero" transform="translate(27.708625, 16.821217) rotate(-71.898436) translate(-27.708625, -16.821217) " cx="27.7086246" cy="16.8212168" rx="1.4457721" ry="1.43748903"></ellipse>
                                </g>
                            </g>
                        </g>
                    </g>
                </g>
            </g>
        </g>
    </g>
</svg>