<svg width="169" height="38" xmlns="http://www.w3.org/2000/svg"><path d="M74.988 23.317H63.944v2.492l.344-.037.008-.04c.074-.37.739-1.073 1.555-1.073h2.467l.002 12.786h2.41l-.016-12.778h2.524c.832 0 1.379.455 1.472.88l.009.048.35-.01-.023-2.268h-.058zM3.34 22.46s.02.02.042.039l-.042-.04a9 9 0 0 0-2.514 6.208c0 2.554 1.037 4.877 2.92 6.54 1.801 1.589 4.208 2.463 6.779 2.463 1.346 0 3.986-.227 6.533-1.751l.1-.06.303-3.598-.476-.06-.07.146c-1.871 3.885-4.816 3.885-5.925 3.885-4.967 0-7.227-4.092-7.227-7.894 0-3.677 2.24-7.387 7.245-7.387 1.536 0 4.327.498 5.778 3.833l.08.184.469-.141-.306-3.748-.124-.055c-2.333-1.01-4.215-1.46-6.1-1.46-3.048 0-5.63 1-7.465 2.895m20.541 2.129c2.428.102 2.497 2.14 2.497 2.37 0 2.054-1.525 2.78-2.83 2.78l-.948-.02V24.61c.247-.02.7-.047 1.281-.022zm-4.046-1.273h-.059l.005.326.03.016c.202.106.426.65.426 1.26l-.001 12.526h2.367l-.01-6.437 1.034.027c.93.05 1.297.663 1.762 1.437l.058.097.297.497c.507.848 1.197 2.012 1.919 3.073.517.764 1.163 1.203 1.975 1.343.578.1 1.734.06 2.17-.072l.52-.134.198-.05-.718-.22c-.29-.088-.747-.288-1.36-.993-.38-.436-.995-1.41-1.925-2.886l-.922-1.458-.018-.025c-.247-.358-.66-.94-1.354-1.309 1.333-.433 2.641-1.638 2.641-3.435 0-.51-.133-1.487-1.014-2.317-.891-.84-2.28-1.266-4.131-1.266h-3.89zm27.01 1.355l1.268.003c.339.004 1.192.026 1.79.116 3.984.6 4.415 3.954 4.415 5.368 0 1.159-.209 2.808-1.2 4.085-.97 1.252-2.493 1.886-4.527 1.886a38.38 38.38 0 0 1-1.746-.03V24.67zm-2.803-1.354h-.066l.044.35.028.013c.206.103.4.606.4 1.041l-.013 12.723h4.054c2.678 0 4.893-.827 6.408-2.393a7.092 7.092 0 0 0 1.98-4.893c0-1.094-.373-2.745-1.415-4.102-1.397-1.818-3.613-2.739-6.587-2.739h-4.833zm17.731-.001h-2.78l.01.341.03.016c.258.127.422.586.422 1.17v12.601h2.372l.003-14.128h-.057zm47.784 0h-2.795l.028.318.028.016c.251.123.422.603.422 1.194v12.6h2.372l.003-14.128h-.058zm-68.581 0h-7.95l.044.332.028.014c.216.107.44.605.44 1.255v12.527h7.939l.578-2.504-.32-.114-.09.14c-.657 1.026-1.324 1.163-3.627 1.163-.82.017-1.622-.053-2.123-.1v-5.766h4.016v-1.273l-4.016-.002v-4.394c.112 0 3.257.037 3.257.037.733 0 1.54.697 1.61 1.119l.008.048.327-.007-.065-2.475h-.056zm101.645 0h-7.924l.016.362.03.014c.214.106.443.572.443 1.225l-.002 12.527h7.94l.577-2.505-.36-.112-.087.138c-.66 1.027-1.318 1.164-3.59 1.164a18.62 18.62 0 0 1-2.122-.1v-5.766h4.015v-1.273l-4.015-.002v-4.394c.113 0 3.255.037 3.255.037.9 0 1.575.68 1.575 1.122v.06l.37-.023-.064-2.474h-.057zm-60.722-2.641c-.837.596-1.84 1.695-1.858 3.54v.053c0 2.268 1.454 3.458 3.797 4.64l-.007-.025c.059.05.263.154.9.477 1.954.975 3.37 1.68 3.37 3.664 0 .68-.26 1.663-.985 2.376-.604.594-1.415.889-2.413.879-2.986-.03-4.043-2.632-4.358-3.748l-.056-.196-.501.084.14 3.692.107.062c.955.55 2.55 1.471 4.834 1.495 1.618.015 3.258-.639 4.39-1.752.992-.977 1.517-2.212 1.517-3.578 0-2.994-2.16-4.119-4.45-5.31l-.43-.225c-2.345-1.17-3.447-1.881-3.433-3.348.01-.999.768-2.575 2.753-2.556 2.31.024 3.583 1.75 3.845 2.83l.047.197.497-.063-.17-3.197-.093-.063c-1.368-.915-3.082-1.03-3.756-1.036-1.34-.014-2.682.391-3.687 1.108m31.488 6.213c-.02 1.958 1.163 2.95 3.079 3.916l.723.364c1.51.755 2.507 1.251 2.507 2.66 0 .245-.053 1.096-.711 1.743-.455.449-1.087.67-1.877.663-2.264-.022-3.094-1.77-3.387-2.81l-.055-.194-.479.079.11 2.975.11.062c.753.436 2.015 1.165 3.83 1.184 1.285.014 2.59-.508 3.49-1.393.79-.778 1.209-1.763 1.209-2.852 0-2.473-1.724-3.37-3.547-4.32l-.322-.168c-1.959-.976-2.643-1.415-2.633-2.506.009-.766.586-1.898 2.145-1.883 1.904.019 2.736 1.39 2.912 2.11l.046.198.48-.063-.138-2.584-.094-.064c-1.086-.727-2.448-.818-2.984-.822-2.12-.022-4.388 1.27-4.414 3.705m10.648 0c-.02 1.956 1.163 2.95 3.08 3.916l.722.364c1.51.755 2.507 1.251 2.507 2.66 0 .245-.053 1.096-.71 1.743-.456.449-1.089.67-1.878.663-2.263-.022-3.093-1.77-3.387-2.81l-.056-.194-.48.079.113 2.975.11.062c.752.436 2.016 1.165 3.828 1.184 1.286.014 2.59-.508 3.49-1.393.791-.778 1.21-1.763 1.21-2.852 0-2.473-1.722-3.37-3.547-4.32l-.322-.168c-1.959-.976-2.643-1.415-2.631-2.506.004-.482.217-.977.57-1.322.385-.373.929-.567 1.573-.561 1.906.019 2.737 1.39 2.913 2.112l.047.196.477-.063-.137-2.584-.093-.064c-1.087-.727-2.448-.818-2.985-.822-2.12-.022-4.387 1.27-4.414 3.705m-20.378-3.584l-1.869.013.03.318.028.014c.096.047.404.267.404 1.16l.01 8.032c0 1.553-.575 3.41-3.313 3.41-2.584 0-3.113-1.536-3.113-3.842l.003-9.092h-2.958l.024.314.026.015c.19.1.509.471.509 1.235v7.528c0 4.674 3.094 5.215 5.422 5.215 1.135 0 4.846-.34 4.846-4.75l.01-9.57h-.06zm59.373-4.023a29.192 29.192 0 0 1 5.307 2.314c-4.57-7.495-12.741-15.66-20.758-20.952 2.067 2.034 5.42 6.509 6.292 11.307 3.283 2.324 6.383 4.797 9.159 7.33m-.006-.002c-3.919-1.253-7.258-1.316-9.739-1.063.874-2.029.963-4.171.587-6.255-6.067-4.294-12.756-8.09-19.186-10.799 4.717 3.174 9.92 12.33 12.104 22.151 4.649-1.369 11.813-2.31 21.046.774a69.997 69.997 0 0 0-4.812-4.808" fill="#FEFEFE" fill-rule="evenodd"/></svg>