<svg width="160" height="38" xmlns="http://www.w3.org/2000/svg"><path d="M9.377 13.16H28.1V9.212H9.377v3.948zm14.386 15.133h4.174V16.12h-4.174v12.173zm-7.128 0h4.174V16.12h-4.174v12.173zm-7.094 0h4.172V16.12H9.541v12.173zM18.722 0C8.382 0 0 8.394 0 18.749 0 29.106 8.383 37.5 18.722 37.5c10.341 0 18.722-8.395 18.722-18.752C37.444 8.394 29.064 0 18.722 0zm45.236 14.575h-3.92c-.044-1.858-1.393-2.913-3.205-2.913-1.56 0-3.372.59-3.372 2.45 0 4.22 11.045 1.435 11.045 8.359 0 4.266-3.67 6.207-7.547 6.207-4.428 0-8.096-1.562-8.052-6.42h4.174c0 2.113 1.138 3.547 3.374 3.547 1.643 0 3.835-.589 3.835-2.576 0-4.432-10.877-1.433-10.877-8.57 0-4.222 3.922-5.868 7.546-5.868 3.837 0 6.745 1.86 7 5.784m16.146 13.723l-1.898-6.333c-.42-1.392-.673-2.788-.967-4.182-.215 1.015-.38 2.03-.678 3l-.295 1.055-1.768 6.46h-4.681l-4.341-13.3h4.467l1.856 6.967.253.97.21.93.254 1.647c.211-1.604.59-3.125 1.01-4.646l1.645-5.869h4.554l1.728 6.123c.423 1.435.717 2.872.928 4.35l.126-.763c.169-1.263.505-2.49.886-3.756l1.644-5.954h4.258l-4.553 13.3h-4.638zm11.172 0h3.963v-13.3h-3.963zm-.127-15.792h4.216V9.212h-4.215zm17.497 5.995h-3.541c-.087-.972-.971-1.475-1.898-1.475-.844 0-2.068.252-2.026 1.348.043.847.971 1.1 1.647 1.267l1.517.381c2.319.507 4.974 1.479 4.974 4.265 0 3.377-3.457 4.391-6.239 4.391-2.737 0-5.436-1.224-5.65-4.18h3.668c.126 1.183 1.054 1.772 2.194 1.772 1.011 0 2.318-.422 2.318-1.646 0-2.532-7.926-.717-7.926-5.87 0-3.122 3.12-4.135 5.733-4.135 2.403 0 4.806.97 5.187 3.588l.042.294zm13.027 0h-3.543c-.085-.972-.97-1.475-1.896-1.475-.844 0-2.065.252-2.023 1.348.041.847.97 1.1 1.644 1.267l1.517.381c2.319.507 4.974 1.479 4.974 4.265 0 3.377-3.457 4.391-6.239 4.391-2.741 0-5.438-1.224-5.648-4.18h3.666c.127 1.183 1.055 1.772 2.194 1.772 1.013 0 2.316-.422 2.316-1.646 0-2.532-7.924-.717-7.924-5.87 0-3.122 3.12-4.135 5.733-4.135 2.404 0 4.808.97 5.186 3.588l.043.294zm15.345-1.055h-2.951v-5.235h2.992c1.687 0 3.08.718 3.08 2.576 0 1.9-1.393 2.66-3.121 2.66m3.288 1.391c2.36-.672 4.133-2.108 4.133-4.727 0-3.675-3.415-4.898-6.579-4.898h-7.882v19.084h4.089v-7.724h3.205c3.666 0 2.782 5.108 3.372 7.724h4.468c-2.023-3.59.424-8.444-4.806-9.459m12.647-1.812c1.984 0 2.36 1.644 2.445 3.252h-4.677c.04-1.44.462-3.252 2.232-3.252m.255 9.244c-2.11 0-2.487-1.816-2.487-3.587h8.767c0-4.267-1.516-8.064-6.447-8.064-4.262 0-6.41 3.46-6.41 7.386 0 4.097 2.443 6.673 6.532 6.673 2.783 0 5.651-1.18 5.861-4.307h-3.54c-.253 1.264-.97 1.899-2.276 1.899" fill="#FFF" fill-rule="evenodd"/></svg>