<svg width="33" height="32" xmlns="http://www.w3.org/2000/svg"><g fill="#FFF" fill-rule="evenodd"><path d="M16.034 10.449c-3.068 0-5.563 2.49-5.563 5.551s2.495 5.551 5.563 5.551c3.068 0 5.563-2.49 5.563-5.551s-2.495-5.551-5.563-5.551m0 13.62c-4.459 0-8.086-3.62-8.086-8.069 0-4.449 3.627-8.068 8.086-8.068 4.458 0 8.085 3.619 8.085 8.068s-3.627 8.068-8.085 8.068m8.828-16.323a.032.032 0 0 0-.033.032c0 .036.065.036.065 0a.032.032 0 0 0-.032-.032m0 2.157a2.13 2.13 0 0 1-2.13-2.125 2.13 2.13 0 0 1 4.259 0 2.13 2.13 0 0 1-2.13 2.125"/><path d="M8.107 2.517c-3.08 0-5.585 2.5-5.585 5.573v15.82c0 3.073 2.505 5.573 5.585 5.573h15.854c3.08 0 5.585-2.5 5.585-5.573V8.09c0-3.073-2.506-5.573-5.585-5.573H8.107zM23.961 32H8.107C3.637 32 0 28.37 0 23.91V8.09C0 3.629 3.637 0 8.107 0h15.854c4.47 0 8.107 3.629 8.107 8.09v15.82c0 4.46-3.637 8.09-8.107 8.09z"/></g></svg>