<svg width="36" height="35" xmlns="http://www.w3.org/2000/svg"><g fill="#C6C6C6" fill-rule="evenodd"><path d="M17.733 11.428c-3.307 0-5.998 2.724-5.998 6.072s2.69 6.072 5.998 6.072c3.308 0 5.998-2.724 5.998-6.072s-2.69-6.072-5.998-6.072m0 14.897c-4.807 0-8.717-3.96-8.717-8.825 0-4.866 3.91-8.825 8.717-8.825s8.718 3.959 8.718 8.825-3.91 8.825-8.718 8.825M27.25 8.47a.035.035 0 0 0-.034.036c0 .04.07.04.07 0a.035.035 0 0 0-.035-.035m0 2.36c-1.266 0-2.296-1.043-2.296-2.325 0-1.281 1.03-2.324 2.296-2.324 1.266 0 2.296 1.043 2.296 2.324 0 1.282-1.03 2.324-2.296 2.324"/><path d="M9.187 2.753c-3.32 0-6.022 2.734-6.022 6.095v17.304c0 3.36 2.701 6.095 6.022 6.095H26.28c3.32 0 6.021-2.734 6.021-6.095V8.848c0-3.36-2.701-6.095-6.021-6.095H9.187zM26.28 35H9.187c-4.82 0-8.741-3.97-8.741-8.848V8.848C.446 3.97 4.366 0 9.186 0H26.28c4.82 0 8.74 3.97 8.74 8.848v17.304C35.02 31.03 31.1 35 26.28 35z"/></g></svg>