
<!-- <svg width="29px" height="21px" viewBox="0 0 29 21" version="1.1" xmlns="http://www.w3.org/2000/svg" xmlns:xlink="http://www.w3.org/1999/xlink"> -->
<svg viewBox="0 0 29 21" version="1.1" xmlns="http://www.w3.org/2000/svg" xmlns:xlink="http://www.w3.org/1999/xlink">
    <g id="Symbols" stroke="none" stroke-width="1" fill="none" fill-rule="evenodd">
        <g id="Icons/submit_dark" transform="translate(0.000000, -1.000000)" fill="#4A4A4A">
            <g id="Icons/submit–&gt;" transform="translate(14.500000, 11.000000) rotate(-90.000000) translate(-14.500000, -11.000000) translate(4.000000, -3.000000)">
                <path d="M10.9715208,27.3108862 C10.9659412,27.316405 10.969661,27.3274427 10.9622215,27.3329615 C10.7780952,27.5150832 10.5344532,27.6033846 10.2926711,27.601545 C10.050889,27.6033846 9.80724703,27.5150832 9.62312066,27.3329615 C9.61754107,27.3274427 9.61568121,27.3182446 9.61382135,27.3108862 L0.355426768,18.1808897 C-0.0109661075,17.8203256 -0.0109661075,17.2334893 0.355426768,16.8729252 C0.721819643,16.5123612 1.31511572,16.5123612 1.68150859,16.8729252 L9.35902021,24.4466096 L9.35902021,0.919806217 C9.35902021,0.412073185 9.77562937,2.30926389e-13 10.2908112,2.30926389e-13 C10.8059931,2.30926389e-13 11.2226022,0.412073185 11.2226022,0.919806217 L11.2226022,24.4484492 L18.9001139,16.8747649 C19.2665067,16.5142008 19.8598028,16.5142008 20.2261957,16.8747649 C20.5907287,17.2353289 20.5907287,17.8221653 20.2261957,18.1827293 L10.9715208,27.3108862 Z" id="Path"></path>
            </g>
        </g>
    </g>
</svg>