<svg width="19px" height="35px" viewBox="0 0 19 35" version="1.1" xmlns="http://www.w3.org/2000/svg" xmlns:xlink="http://www.w3.org/1999/xlink">
    <g id="Symbols" stroke="none" stroke-width="1" fill="none" fill-rule="evenodd">
        <g id="Footer_375_restart" transform="translate(-84.000000, -21.000000)" fill="#C6C6C6">
            <g id="Footer_MOBILE">
                <g id="–Footer">
                    <g id="social_icons" transform="translate(84.000000, 21.000000)">
                        <path d="M18.8588932,0.252403846 L18.8588932,5.80528846 L15.4319878,5.80528846 C14.1805562,5.80528846 13.3365553,6.05769231 12.9000068,6.5625 C12.4634584,7.06730769 12.2451841,7.82451923 12.2451841,8.83413462 L12.2451841,12.8094952 L18.640619,12.8094952 L17.7893495,19.0354567 L12.2451841,19.0354567 L12.2451841,35 L5.56599278,35 L5.56599278,19.0354567 L0,19.0354567 L0,12.8094952 L5.56599278,12.8094952 L5.56599278,8.22415865 C5.56599278,5.61598558 6.32268405,3.59324219 7.83604474,2.15594952 C9.34940544,0.718656851 11.3648187,0 13.8822408,0 C16.0213283,0 17.6802124,0.0841346154 18.8588932,0.252403846" id="facebook"></path>
                    </g>
                </g>
            </g>
        </g>
    </g>
</svg>