<svg width="42px" height="30px" viewBox="0 0 42 30" version="1.1" xmlns="http://www.w3.org/2000/svg" xmlns:xlink="http://www.w3.org/1999/xlink">
    <g id="Symbols" stroke="none" stroke-width="1" fill="none" fill-rule="evenodd">
        <g id="Footer_375_restart" transform="translate(-250.000000, -26.000000)" fill="#C6C6C6" fill-rule="nonzero">
            <g id="Footer_MOBILE">
                <g id="–Footer">
                    <g id="social_icons" transform="translate(84.000000, 21.000000)">
                        <path d="M207.08666,9.65811966 C206.62999,7.82051282 205.218464,6.36752137 203.433299,5.85470085 C200.236609,5 187.325301,5 187.325301,5 C187.325301,5 174.413993,5 171.175787,5.8974359 C169.390623,6.41025641 167.979097,7.82051282 167.522427,9.7008547 C166.650602,13.034188 166.650602,20 166.650602,20 C166.650602,20 166.650602,26.965812 167.522427,30.2991453 C167.979097,32.1367521 169.390623,33.5897436 171.175787,34.1025641 C174.413993,35 187.325301,35 187.325301,35 C187.325301,35 200.236609,35 203.474815,34.1025641 C205.25998,33.5897436 206.671505,32.1794872 207.128175,30.2991453 C208,26.965812 208,20 208,20 C208,20 207.958485,13.034188 207.08666,9.65811966 Z M183.190361,26.6 L183.190361,13.4 L193.823064,20 L183.190361,26.6 Z" id="youtube"></path>
                    </g>
                </g>
            </g>
        </g>
    </g>
</svg>