<svg width="36px" height="35px" viewBox="0 0 36 35" version="1.1" xmlns="http://www.w3.org/2000/svg" xmlns:xlink="http://www.w3.org/1999/xlink">
    <g id="Symbols" stroke="none" stroke-width="1" fill="none" fill-rule="evenodd">
        <g id="Footer_375_restart" transform="translate(-165.000000, -21.000000)" fill="#C6C6C6">
            <g id="Footer_MOBILE">
                <g id="–Footer">
                    <g id="social_icons" transform="translate(84.000000, 21.000000)">
                        <g id="insta" transform="translate(81.445783, 0.000000)">
                            <path d="M17.2873188,11.4281292 C13.9798079,11.4281292 11.2892019,14.1518371 11.2892019,17.5000393 C11.2892019,20.8482416 13.9798079,23.5719494 17.2873188,23.5719494 C20.5948296,23.5719494 23.2854357,20.8482416 23.2854357,17.5000393 C23.2854357,14.1518371 20.5948296,11.4281292 17.2873188,11.4281292 M17.2873188,26.3247584 C12.4802787,26.3247584 8.56984836,22.3658258 8.56984836,17.5000393 C8.56984836,12.6338596 12.4802787,8.67532022 17.2873188,8.67532022 C22.0943588,8.67532022 26.0047892,12.6338596 26.0047892,17.5000393 C26.0047892,22.3658258 22.0943588,26.3247584 17.2873188,26.3247584" id="Fill-1"></path>
                            <path d="M26.8050561,8.47078652 C26.7856321,8.47078652 26.7700929,8.48691011 26.7700929,8.50617978 C26.7700929,8.54511236 26.8400192,8.54511236 26.8400192,8.50617978 C26.8400192,8.48691011 26.82448,8.47078652 26.8050561,8.47078652 M26.8050561,10.8303371 C25.5390028,10.8303371 24.5091447,9.78780899 24.5091447,8.50617978 C24.5091447,7.22455056 25.5390028,6.18202247 26.8050561,6.18202247 C28.0711094,6.18202247 29.1009674,7.22455056 29.1009674,8.50617978 C29.1009674,9.78780899 28.0711094,10.8303371 26.8050561,10.8303371" id="Fill-3"></path>
                            <path d="M8.74077915,2.75280899 C5.42044851,2.75280899 2.71935351,5.48713483 2.71935351,8.84831461 L2.71935351,26.1516854 C2.71935351,29.5128652 5.42044851,32.247191 8.74077915,32.247191 L25.8338584,32.247191 C29.154189,32.247191 31.855284,29.5128652 31.855284,26.1516854 L31.855284,8.84831461 C31.855284,5.48713483 29.154189,2.75280899 25.8338584,2.75280899 L8.74077915,2.75280899 Z M25.8338584,35 L8.74077915,35 C3.92091929,35 0,31.0304494 0,26.1516854 L0,8.84831461 C0,3.9691573 3.92091929,0 8.74077915,0 L25.8338584,0 C30.6533298,0 34.5746375,3.9691573 34.5746375,8.84831461 L34.5746375,26.1516854 C34.5746375,31.0304494 30.6533298,35 25.8338584,35 L25.8338584,35 Z" id="Fill-5"></path>
                        </g>
                    </g>
                </g>
            </g>
        </g>
    </g>
</svg>