<svg width="400" height="25" xmlns="http://www.w3.org/2000/svg" xmlns:xlink="http://www.w3.org/1999/xlink"><defs><path id="a" d="M0 24.575h399.525V0H0z"/></defs><g fill="none" fill-rule="evenodd"><path d="M88.666 16.63c-5.37 0-8.329-.674-8.329-5.32 0-4.346 2.955-5.537 8.336-5.537h5.279c5.381 0 8.335.8 8.335 5.246l-4.069.001c-.105-1.006-.234-2.122-4.118-2.122h-5.56c-3.518 0-4.312.756-4.312 2.398 0 1.654.69 2.176 4.234 2.209h6.061c6.415-.033 8.33 1.066 8.33 5.376 0 4.656-2.955 5.661-8.336 5.661h-6.12c-5.38 0-8.141-.964-8.141-5.49h4.069c.103 1.1.298 2.365 4.183 2.365h5.963c3.586 0 4.49-.566 4.49-2.536 0-1.729-.89-2.251-4.827-2.251h-5.469zm131.756 0c-5.37 0-8.329-.674-8.329-5.32 0-4.346 2.955-5.537 8.336-5.537h5.279c5.382 0 8.335.8 8.335 5.246l-4.069.001c-.105-1.006-.234-2.122-4.118-2.122h-5.559c-3.518 0-4.312.756-4.312 2.398 0 1.654.69 2.176 4.235 2.209h6.06c6.415-.033 8.33 1.066 8.33 5.376 0 4.656-2.955 5.661-8.336 5.661h-6.12c-5.38 0-8.14-.964-8.14-5.49h4.068c.103 1.1.3 2.365 4.183 2.365h5.964c3.585 0 4.49-.566 4.49-2.536 0-1.729-.891-2.251-4.827-2.251h-5.47z" fill="#333"/><mask id="b" fill="#fff"><use xlink:href="#a"/></mask><path fill="#333" mask="url(#b)" d="M340.092 24.38h4.027V5.96h-4.027zM71.325 5.96v13.476L55.75 5.96h-3.33v18.42h3.994V10.988l15.46 13.392h3.445V5.96zM362.79 21.219h-3.897c-5.106 0-5.676-1.002-5.676-5.043v-2c0-4.04.57-5.043 5.676-5.043h3.896c4.868 0 5.155.803 5.333 2.391h4.072c-.148-4.367-1.69-5.742-9.23-5.742h-4.568c-7.528 0-9.237 1.795-9.237 8.519v1.75c0 6.725 1.71 8.52 9.237 8.52h4.567c7.652 0 9.128-1.608 9.237-6.131h-4.06c-.086 1.645-.318 2.779-5.35 2.779M148.118 5.976v7.43h-14.362V5.96h-4.026v18.42h4.026v-7.686h14.362v7.702h4.027V5.976zm247.381 0v7.43h-14.362V5.96h-4.027v18.42h4.027v-7.686h14.362v7.702h4.026V5.976zm-268.734-.032h-22.053v3.32h8.919V24.38h4.027V9.264h9.107zM326.61 9.28c3.543 0 4.142 1.282 4.142 3.152v.391c0 1.743-.961 3.012-4.081 3.012h-10.987V9.28h10.926zm5.919 8.128c1.705-1.093 2.176-2.784 2.176-4.727v-.506c0-3.674-.74-6.216-7.351-6.216h-15.696V24.38h4.026v-5.257h11.008c2.177 0 2.42.525 2.634.918l2.065 4.533h4.35l-3.212-7.166zm-68.469 3.555l15.292-12.202V5.96h-21.148v3.417h15.035L257.88 21.643v2.737h21.65v-3.417zM47.133 16.051c0 6.725-1.71 8.52-9.237 8.52h-3.843c-7.53 0-9.239-1.795-9.239-8.52V5.944h4.027V16.11c0 4.04.44 5.108 5.547 5.108h3.172c5.106 0 5.547-1.067 5.547-5.108V5.944h4.026V16.05zm160.035 0c0 6.725-1.709 8.52-9.237 8.52h-3.843c-7.528 0-9.238-1.795-9.238-8.52V5.944h4.027V16.11c0 4.04.44 5.108 5.546 5.108h3.174c5.105 0 5.546-1.067 5.546-5.108V5.944h4.025V16.05zm99.073 0c0 6.725-1.71 8.52-9.237 8.52h-3.844c-7.53 0-9.238-1.795-9.238-8.52V5.944h4.026V16.11c0 4.04.442 5.108 5.548 5.108h3.172c5.106 0 5.547-1.067 5.547-5.108V5.944h4.026V16.05zM18.062 24.38h5.514l-11.23-10.03 9.436-8.407h-5.271l-7.651 6.8H3.995V5.96H0v18.42h3.995v-8.22h4.854zm144.536-7.54l3.501-7.674h5.62l3.501 7.674h-12.622zm16.064 7.54h4.163l-8.413-18.436h-11.006l-8.413 18.436h4.164l1.985-4.35h15.535l1.985 4.35zM287.948 4.142a2.07 2.07 0 1 0-2.071-2.07c0 1.146.926 2.07 2.071 2.07m6.561 0c1.15 0 2.075-.924 2.075-2.07a2.074 2.074 0 0 0-4.148 0c0 1.146.93 2.07 2.073 2.07"/></g></svg>