
<svg width="60px" height="46px" viewBox="0 0 60 46" version="1.1" xmlns="http://www.w3.org/2000/svg" xmlns:xlink="http://www.w3.org/1999/xlink">
    <g id="Symbols" stroke="none" stroke-width="1" fill="none" fill-rule="evenodd">
        <g id="Icons/Mitgliedschaft/events" transform="translate(0.000000, -7.000000)" fill="#000000" fill-rule="nonzero">
            <g id="MASKS" transform="translate(0.000000, 7.000000)">
                <path d="M58.8433735,13.65625 C58.5542169,13.36875 58.1927711,13.225 57.8313253,13.36875 C55.8795181,13.8 53.8554217,14.23125 52.0481928,13.584375 L37.5180723,8.265625 C35.4939759,7.61875 33.8313253,6.325 32.6024096,4.528125 C32.3855422,4.16875 31.9518072,4.025 31.5903614,4.096875 C31.1566265,4.16875 30.8674699,4.384375 30.7228916,4.815625 L30.5783133,5.175 C30.4337349,3.090625 30.3614458,1.653125 30.3614458,1.4375 C30.3614458,1.078125 30.0722892,0.71875 29.7831325,0.575 C29.4216867,0.43125 28.9879518,0.43125 28.6987952,0.646875 C27.0361446,1.725 25.3012048,2.875 23.4216867,2.946875 L7.95180723,3.1625 C5.85542169,3.234375 3.75903614,2.659375 2.02409639,1.4375 C1.6626506,1.221875 1.22891566,1.15 0.86746988,1.365625 C0.506024096,1.58125 0.289156627,1.940625 0.289156627,2.3 L0.578313253,25.371875 L0.578313253,25.5875 C0.578313253,26.521875 0.65060241,27.45625 0.795180723,27.959375 C2.60240964,34.64375 8.74698795,39.171875 16.0481928,39.171875 C18.6506024,39.171875 21.1807229,38.38125 23.4939759,37.015625 C25.1566265,40.5375 28.2650602,43.340625 32.2409639,44.921875 C33.7590361,45.496875 35.4216867,45.784375 37.1566265,45.784375 C42.0722892,45.784375 47.060241,43.4125 49.7349398,39.53125 C53.4216867,34.2125 59.060241,15.596875 59.2771084,14.80625 C59.2048193,14.303125 59.1325301,13.871875 58.8433735,13.65625 Z M21.3253012,13.296875 C22.3373494,13.296875 23.1325301,14.0875 23.1325301,15.09375 C23.1325301,16.1 22.3373494,16.890625 21.3253012,16.890625 C20.313253,16.890625 19.5180723,16.1 19.5180723,15.09375 C19.5180723,14.0875 20.313253,13.296875 21.3253012,13.296875 Z M9.39759036,13.36875 C10.4096386,13.36875 11.2048193,14.159375 11.2048193,15.165625 C11.2048193,16.171875 10.4096386,16.9625 9.39759036,16.9625 C8.38554217,16.9625 7.59036145,16.171875 7.59036145,15.165625 C7.59036145,14.159375 8.38554217,13.36875 9.39759036,13.36875 Z M22.9879518,24.86875 C20.5301205,30.33125 10.6987952,30.61875 7.87951807,25.3 C7.59036145,24.58125 7.59036145,24.365625 7.59036145,24.365625 C7.59036145,24.365625 8.38554217,25.15625 9.90361446,26.01875 C12.7228916,27.815625 18.5783133,27.16875 21.253012,25.5875 C22.5542169,24.86875 23.4216867,23.8625 23.4216867,23.8625 C23.4216867,23.8625 23.2048193,24.365625 22.9879518,24.86875 Z M47.7831325,38.165625 C44.313253,43.196875 37.373494,44.490625 32.8192771,42.765625 C29.2048193,41.4 26.4578313,38.8125 25.0843373,35.65 C27.6144578,33.6375 29.5662651,30.834375 30.2891566,27.815625 C31.1566265,24.29375 31.0843373,16.746875 30.7951807,10.565625 L32.0240964,7.1875 C33.3253012,8.553125 34.9879518,9.63125 36.7951807,10.20625 L51.3253012,15.596875 C53.060241,16.171875 54.7951807,16.1 56.5301205,15.8125 C54.939759,20.628125 50.6024096,33.996875 47.7831325,38.165625 Z" id="Shape"></path>
                <ellipse id="Oval" transform="translate(46.055848, 24.685203) rotate(-71.898436) translate(-46.055848, -24.685203) " cx="46.0558482" cy="24.6852028" rx="1.80721513" ry="1.79686129"></ellipse>
                <path d="M29.9277108,33.78125 C28.4096386,34.06875 27.3253012,34.7875 27.3253012,34.7875 C27.3253012,34.7875 27.686747,34.35625 28.1204819,33.996875 C32.2409639,29.6125 41.6385542,32.4875 42.5783133,38.38125 C42.5783133,39.171875 42.5060241,39.315625 42.5060241,39.315625 C42.5060241,39.315625 42,38.309375 40.8433735,37.015625 C38.746988,34.35625 32.9638554,33.134375 29.9277108,33.78125 Z" id="Shape"></path>
                <ellipse id="Oval" transform="translate(34.635781, 21.026521) rotate(-71.898436) translate(-34.635781, -21.026521) " cx="34.6357807" cy="21.0265209" rx="1.80721513" ry="1.79686129"></ellipse>
            </g>
        </g>
    </g>
</svg>