
<svg width="50px" height="60px" viewBox="0 0 50 60" version="1.1" xmlns="http://www.w3.org/2000/svg" xmlns:xlink="http://www.w3.org/1999/xlink">
    <g id="Symbols" stroke="none" stroke-width="1" fill="none" fill-rule="evenodd">
        <g id="Icons/Mitgliedschaft/tickets" transform="translate(-5.000000, 0.000000)" fill="#000000" fill-rule="nonzero">
            <g id="Group" transform="translate(5.000000, 0.000000)">
                <polygon id="Shape" points="29.2105263 14.9010989 28.9473684 14.8351648 28.9473684 14.7032967"></polygon>
                <path d="M49.7368421,27.4945055 L28.3552632,59.8681319 L22.3684211,55.9120879 L22.8289474,55.1868132 C23.5526316,54.0659341 23.8157895,52.6813187 23.5526316,51.3626374 C23.2894737,50.043956 22.5,48.8571429 21.3815789,48.1318681 C20.2631579,47.4065934 18.8815789,47.1428571 17.5657895,47.4065934 C16.25,47.6703297 15.0657895,48.4615385 14.3421053,49.5824176 L13.8815789,50.2417582 L7.89473684,46.2857143 L25.1973684,20.1098901 L29.2763158,13.9120879 L30.7894737,14.9010989 L31.7763158,15.5604396 L32.2368421,15.8901099 L35.2631579,17.9340659 L34.9342105,18.5934066 C34.2105263,19.7142857 33.9473684,21.0989011 34.2105263,22.4175824 C34.4736842,23.7362637 35.2631579,24.9230769 36.3815789,25.6483516 C37.5,26.3736264 38.8157895,26.6373626 40.1973684,26.3736264 C41.5131579,26.1098901 42.6973684,25.3186813 43.4210526,24.1978022 L43.8815789,23.5384615 L49.7368421,27.4945055 Z M40.9210526,36.9230769 L41.8421053,35.5384615 L39.6052632,34.021978 L38.6842105,35.4065934 L40.9210526,36.9230769 Z M37.3026316,34.5494505 L38.2236842,33.1648352 L35.9868421,31.6483516 L35.0657895,33.032967 L37.3026316,34.5494505 Z M33.75,32.1098901 L34.6710526,30.7252747 L32.4342105,29.2087912 L31.5131579,30.5934066 L33.75,32.1098901 Z M30.1315789,29.7362637 L31.0526316,28.3516484 L28.8157895,26.8351648 L27.8947368,28.2197802 L30.1315789,29.7362637 Z M27.4342105,25.978022 L25.1973684,24.4615385 L24.2763158,25.8461538 L26.5131579,27.3626374 L27.4342105,25.978022 Z" id="Shape"></path>
                <path d="M11.7105263,13.5824176 L12.1052632,12 L9.47368421,11.2747253 L9.01315789,12.8571429 L11.7105263,13.5824176 Z M20,15.8901099 L20.3947368,14.3076923 L17.7631579,13.5824176 L17.3026316,15.1648352 L20,15.8901099 Z M29.2105263,11.2747253 L14.2763158,33.4945055 L13.3552632,34.9450549 C13.3552632,34.9450549 13.3552632,34.9450549 13.2894737,34.9450549 C10.5921053,34.2197802 7.89473684,35.8681319 7.10526316,38.5054945 L6.90789474,39.2967033 L0,37.3846154 L10.1973684,0 L17.1052632,1.91208791 L16.9078947,2.7032967 C16.5789474,4.02197802 16.7105263,5.40659341 17.3684211,6.52747253 C18.0263158,7.71428571 19.1447368,8.57142857 20.4605263,8.9010989 C21.7763158,9.23076923 23.0921053,9.0989011 24.2763158,8.43956044 C25.4605263,7.78021978 26.3157895,6.65934066 26.6447368,5.40659341 L26.8421053,4.61538462 L33.75,6.52747253 L31.9078947,13.3186813 L29.2105263,11.2747253 Z M16.3157895,13.1868132 L13.6842105,12.4615385 L13.2236842,14.043956 L15.8552632,14.7692308 L16.3157895,13.1868132 Z M22.0394737,14.7692308 L21.5789474,16.3516484 L24.2105263,17.0769231 L24.6710526,15.4945055 L22.0394737,14.7692308 Z" id="Shape"></path>
            </g>
        </g>
    </g>
</svg>