<svg width="60px" height="42px" viewBox="0 0 60 42" version="1.1" xmlns="http://www.w3.org/2000/svg" xmlns:xlink="http://www.w3.org/1999/xlink">
    <g id="Symbols" stroke="none" stroke-width="1" fill="none" fill-rule="evenodd">
        <g id="Icons/Mitgliedschaft/restaurant" transform="translate(0.000000, -9.000000)" fill="#000000" fill-rule="nonzero">
            <g id="Group" transform="translate(0.000000, 9.000000)">
                <path d="M9.24834646,35.1922667 C9.29874016,34.3807333 9.35181102,33.5656222 9.45606299,32.7486444 C9.65464567,30.8003111 10.0818898,28.8519778 10.516378,26.9470444 C10.7880315,25.998 11.0771654,25.0638889 11.3744882,24.1475111 C11.7623622,23.2563333 12.1411024,22.3690444 12.5162205,21.5015111 C13.3725984,19.8062667 14.3258268,18.2239556 15.4648819,16.8981556 C15.7384252,16.5574889 16.0045669,16.2249111 16.2672441,15.8932667 C16.5683465,15.5986444 16.8664567,15.3104 17.1611024,15.0240222 C17.7694488,14.4781778 18.2982677,13.8926667 18.9102362,13.4543111 C20.1206299,12.5659333 21.1982677,11.7218889 22.2924409,11.1978222 C23.3472441,10.6185333 24.2538583,10.1117333 25.0689764,9.82706667 C26.6634646,9.19177778 27.5702362,8.8718 27.5702362,8.8718 C27.5702362,8.8718 26.7962205,9.47737778 25.443937,10.4595556 C24.7433071,10.9133111 24.0086614,11.6243556 23.1256693,12.3490889 C22.211811,13.0430222 21.3765354,14.0353111 20.392126,14.9922889 C19.8962205,15.4766889 19.512126,16.0911333 19.0455118,16.6542444 C18.8168504,16.9389111 18.5844094,17.2316667 18.3483465,17.5253556 C18.1497638,17.8479778 17.9494488,18.1732444 17.743622,18.5031778 C16.8716535,19.7799778 16.220315,21.2810889 15.539685,22.8064667 C15.2644094,23.5998 14.9781102,24.4060444 14.6907087,25.2228667 C14.4940157,26.0742222 14.2752756,26.9308667 14.0355906,27.7858 C13.6787402,29.5390667 13.3266142,31.3264 13.1792126,33.1698889 C13.072126,33.8367556 13.0182677,34.5128 12.9614173,35.1888444 C27.7645669,35.1924222 39.2251969,35.1995778 55.2588976,35.1995778 C55.3119685,34.5054889 55.3429921,33.8042444 55.3429921,33.0939778 C55.3429921,19.7557111 45.4990551,8.77255556 32.8429921,7.31764444 C33.6571654,6.56024444 34.1714961,5.48862222 34.1714961,4.29473333 C34.167874,2.00931111 32.2941732,0.155088889 29.9776378,0.155088889 C27.660315,0.155088889 25.7804724,2.00931111 25.7804724,4.2994 C25.7804724,5.4922 26.2946457,6.56397778 27.1133858,7.32122222 C14.4525984,8.77613333 4.61433071,19.7594444 4.61433071,33.0977111 C4.61433071,33.8044 4.6407874,34.5019111 4.69307087,35.1925778 C6.2576378,35.1922667 7.7680315,35.1922667 9.24834646,35.1922667 Z" id="Shape"></path>
                <polygon id="Rectangle-path" points="0 36.7321111 59.956063 36.7321111 59.956063 41.9572222 0 41.9572222"></polygon>
            </g>
        </g>
    </g>
</svg>