
<svg width="55px" height="60px" viewBox="0 0 55 60" version="1.1" xmlns="http://www.w3.org/2000/svg" xmlns:xlink="http://www.w3.org/1999/xlink">
    <g id="Symbols" stroke="none" stroke-width="1" fill="none" fill-rule="evenodd">
        <g id="Icons/Mitgliedschaft/bibliothek" transform="translate(-3.000000, 0.000000)" fill="#000000">
            <path d="M31.0079943,6.81526083e-06 L53.5525922,14.4286575 L53.5525922,23.7663703 L52.7588051,24.2249487 L58,27.5794015 L58,36.9171143 L51.5636442,40.637212 L51.5636442,46.1933348 L27.6746292,60 L6.6852719,46.3799491 C2.581635,43.7167744 1.43969871,38.3669991 5.66611224,35.9240998 L9.95451927,33.4455815 C8.8915955,30.9668154 9.39704346,28.2116842 12.1024928,26.6478545 L12.485894,26.4258827 L8.67424838,23.9527298 C4.57061148,21.2895552 3.42867519,15.9400277 7.65532956,13.4968806 L31.0080227,0 L31.0079943,6.81526083e-06 Z M32.7312331,6.26837394 L41.3824097,12.1879422 L35.967381,15.6185029 L27.3163897,9.69917625 L32.7311713,6.26837394 L32.7312331,6.26837394 Z M49.3762292,41.9009119 L34.1109109,50.7237008 L31.5408827,49.0837941 L27.7460091,51.1027594 L7.3985089,38.8165169 C4.99161268,37.3629705 4.84477104,42.6093025 7.1697326,44.0972475 L27.7659725,57.2787054 L49.3762527,44.8602469 L49.3762527,41.9009491 L49.3762292,41.9009119 Z M34.252201,42.6865938 L55.8126468,30.400847 L55.8126468,35.5840078 L34.2023666,48.0022184 L13.6061267,34.8210083 C11.2811639,33.3330696 11.4263074,28.0891415 13.834903,29.5402778 L34.2521837,42.6866062 L34.252201,42.6865938 Z M30.916588,29.8000508 L51.3654861,17.3672183 L51.3654861,22.4330512 L30.9185641,35.0315565 L9.15878072,21.6702996 C6.80731985,20.2262636 6.97896136,14.9384328 9.38780032,16.3893275 L30.9166288,29.800088 L30.916588,29.8000508 Z" id="Shape"></path>
        </g>
    </g>
</svg>