
<svg width="169px" height="38px" viewBox="0 0 169 38" version="1.1" xmlns="http://www.w3.org/2000/svg" xmlns:xlink="http://www.w3.org/1999/xlink">
    <g id="Symbols" stroke="none" stroke-width="1" fill="none" fill-rule="evenodd">
        <g id="Footer_1440_wide_restart" transform="translate(-225.000000, -364.000000)" fill="#FEFEFE">
            <g id="–Footer" transform="translate(0.000000, -1.000000)">
                <g id="partner" transform="translate(225.000000, 344.000000)">
                    <g id="Logo-CS-" transform="translate(0.000000, 21.000000)">
                        <path d="M74.9880696,23.3169469 L63.9439826,23.3169469 L63.9439826,25.8091594 L64.2884174,25.7724444 L64.2958087,25.7313237 C64.3697217,25.3627053 65.0349391,24.6592464 65.8509391,24.6592464 L68.3181565,24.6592464 C68.3181565,24.7723285 68.3196348,37.4448696 68.3196348,37.4448696 L70.7292,37.4448696 C70.7292,37.4448696 70.7144174,24.7811401 70.7144174,24.6665894 L73.2378087,24.6665894 C74.0700696,24.6665894 74.6170261,25.1218551 74.7101565,25.5477488 L74.7190261,25.594744 L75.0693739,25.5844638 L75.0457217,23.3169469 L74.9880696,23.3169469 Z" id="Fill-1"></path>
                        <path d="M3.34016522,22.459285 C3.34016522,22.459285 3.36086087,22.4798454 3.38155652,22.4989372 C3.36086087,22.4798454 3.34016522,22.459285 3.34016522,22.459285 C1.74216522,24.1099903 0.825643478,26.3716329 0.825643478,28.6670531 C0.825643478,31.2209469 1.86338261,33.5442705 3.74668696,35.2067246 C5.5472087,36.7957488 7.95381739,37.6695652 10.524513,37.6695652 C11.8712087,37.6695652 14.5113826,37.443401 17.0584261,35.9189952 L17.1574696,35.8587826 L17.460513,32.260715 L16.984513,32.2005024 L16.9150348,32.3473623 C15.0435565,36.2318068 12.0988609,36.2318068 10.9901652,36.2318068 C6.0232087,36.2318068 3.76294783,32.1402899 3.76294783,28.338087 C3.76294783,24.660715 6.00251304,20.9510338 11.0079043,20.9510338 C12.5438174,20.9510338 15.3347739,21.4488889 16.7864261,24.7840773 L16.8662522,24.9676522 L17.3348609,24.8266667 L17.0288609,21.0788019 L16.904687,21.0244638 C14.5719913,20.0140676 12.6901652,19.5632077 10.8053826,19.5632077 C7.7572087,19.5632077 5.17468696,20.5647923 3.34016522,22.459285" id="Fill-3"></path>
                        <path d="M23.8813391,24.588313 C26.3086435,24.6896464 26.3781217,26.7280618 26.3781217,26.9586319 C26.3781217,29.0117333 24.8525565,29.7386899 23.5472522,29.7386899 C23.5472522,29.7386899 22.6987304,29.7210667 22.599687,29.7181295 L22.599687,24.610342 C22.8465565,24.5897816 23.3003826,24.5633469 23.8813391,24.588313 L23.8813391,24.588313 Z M19.8353391,23.3150377 L19.7762087,23.3150377 L19.7806435,23.6410667 L19.8102087,23.6572213 C20.0127304,23.7629604 20.2374261,24.3078106 20.2374261,24.9172792 L20.2359478,37.4429604 L22.6026435,37.4429604 C22.6026435,37.4429604 22.5937739,31.1221101 22.5937739,31.0060908 C22.6972522,31.009028 23.6270783,31.0325256 23.6270783,31.0325256 C24.5569043,31.0839266 24.923513,31.6963324 25.3891652,32.4702841 L25.4468174,32.5672116 L25.7439478,33.0635981 C26.2509913,33.9124483 26.9413391,35.0755787 27.6627304,36.1373758 C28.1801217,36.9010473 28.8261217,37.3401585 29.637687,37.4796754 C30.215687,37.5795401 31.371687,37.5398879 31.8077739,37.407714 C31.8048174,37.407714 32.3281217,37.2740715 32.3281217,37.2740715 L32.5262087,37.2241391 L31.8077739,37.0038493 C31.5180348,36.9157333 31.0612522,36.7160039 30.4477739,36.0110763 C30.0678609,35.5749024 29.4529043,34.6012213 28.5230783,33.1252792 C28.5201217,33.122342 27.6006435,31.6669604 27.6006435,31.6669604 C27.5991652,31.6654918 27.5829043,31.6419942 27.5829043,31.6419942 C27.3360348,31.283656 26.9236,30.7020908 26.2288174,30.3334725 C27.5622087,29.9002357 28.8704696,28.6945159 28.8704696,26.8984193 C28.8704696,26.3888155 28.7374261,25.4107285 27.8563826,24.58097 C26.9649913,23.7409314 25.5754261,23.3150377 23.7246435,23.3150377 L19.8353391,23.3150377 Z" id="Fill-6"></path>
                        <path d="M46.8449391,24.670114 C46.9513739,24.670114 48.113287,24.6730512 48.113287,24.6730512 C48.4518087,24.677457 49.3047652,24.699486 49.9034609,24.7890705 C53.8873739,25.3882589 54.3175478,28.7425391 54.3175478,30.1568 C54.3175478,31.3155246 54.109113,32.9647614 53.1186783,34.2424425 C52.1474609,35.4936889 50.6248522,36.1281237 48.5907652,36.1281237 C48.1044174,36.1281237 47.5027652,36.1266551 46.8449391,36.0972831 L46.8449391,24.670114 Z M44.0421565,23.3160657 L43.9756348,23.3160657 L44.0199826,23.6655923 L44.0480696,23.6788097 C44.2535478,23.7816116 44.4486783,24.2853411 44.4486783,24.7200464 L44.4353739,37.4425198 L48.4887652,37.4425198 C51.1673739,37.4425198 53.3818087,36.6156986 54.8970261,35.050172 C56.1550261,33.7519304 56.8764174,31.9675826 56.8764174,30.1568 C56.8764174,29.0626937 56.5038957,27.4119884 55.4617217,26.0550029 C54.0647652,24.2368773 51.8488522,23.3160657 48.8745913,23.3160657 L44.0421565,23.3160657 Z" id="Fill-8"></path>
                        <path d="M61.7725652,23.3154783 L58.9934348,23.3154783 L59.0023043,23.6561932 L59.0333478,23.6723478 C59.2905652,23.7986473 59.4546522,24.2583188 59.4546522,24.8428213 L59.4546522,37.443401 L61.8272609,37.443401 L61.8302174,23.3154783 L61.7725652,23.3154783 Z" id="Fill-10"></path>
                        <path d="M109.556904,23.3154783 L106.761513,23.3154783 L106.7896,23.6326957 L106.817687,23.6488502 C107.068991,23.7722126 107.24047,24.2524444 107.24047,24.8428213 L107.24047,37.443401 L109.6116,37.443401 L109.614557,23.3154783 L109.556904,23.3154783 Z" id="Fill-12"></path>
                        <path d="M40.9758,23.3154783 L33.025713,23.3154783 L33.0700609,23.6473816 L33.0981478,23.660599 C33.3139739,23.7678068 33.5386696,24.2656618 33.5386696,24.9162512 L33.5371913,37.443401 L41.4769304,37.443401 L42.0549304,34.9394396 L41.7341478,34.8248889 L41.6454522,34.9644058 C40.9876261,35.9909565 40.3209304,36.1275362 38.0178,36.1275362 C37.1973652,36.1451594 36.3961478,36.0746667 35.8950174,36.0276715 L35.8950174,30.2619517 L39.9114522,30.2619517 L39.9114522,28.9886763 C39.9114522,28.9886763 36.005887,28.9872077 35.8950174,28.9872077 L35.8950174,24.5931594 C36.0073652,24.5931594 39.1516261,24.6298744 39.1516261,24.6298744 C39.8848435,24.6298744 40.6919739,25.3274589 40.7629304,25.7489469 L40.7703217,25.7974106 L41.0970174,25.7900676 L41.0319739,23.3154783 L40.9758,23.3154783 Z" id="Fill-14"></path>
                        <path d="M142.621461,23.3154783 L134.696504,23.3154783 L134.712765,23.6767536 L134.743809,23.6914396 C134.956678,23.7971787 135.185809,24.2627246 135.185809,24.9162512 L135.18433,37.443401 L143.12407,37.443401 L143.700591,34.937971 L143.341374,34.8263575 L143.254157,34.9644058 C142.594852,35.9909565 141.935548,36.1275362 139.663461,36.1275362 C138.841548,36.1451594 138.04033,36.0746667 137.542157,36.0276715 L137.542157,30.2619517 L141.557113,30.2619517 L141.557113,28.9886763 C141.557113,28.9886763 137.653026,28.9872077 137.542157,28.9872077 L137.542157,24.5931594 C137.654504,24.5931594 140.797287,24.6298744 140.797287,24.6298744 C141.69607,24.6298744 142.371635,25.3098357 142.371635,25.7518841 L142.371635,25.8120966 L142.7412,25.788599 L142.677635,23.3154783 L142.621461,23.3154783 Z" id="Fill-16"></path>
                        <path d="M81.8987913,20.6737623 C81.0620957,21.2700135 80.0598348,22.3685256 80.0406174,24.213086 L80.0406174,24.2674242 C80.0406174,26.5349411 81.4952261,27.7245063 83.8382696,28.9067285 C83.8382696,28.9067285 83.8338348,28.8920425 83.8308783,28.8817623 C83.8900087,28.9316947 84.0940087,29.0359652 84.7311391,29.359057 C86.6854,30.3342068 88.1000957,31.0391343 88.1000957,33.0232116 C88.1000957,33.7031729 87.8414,34.6856657 87.1155739,35.3994048 C86.5124435,35.9927188 85.7008783,36.2879072 84.7030522,36.2776271 C81.7169652,36.2482551 80.6600087,33.6458976 80.3451391,32.5297623 L80.2889652,32.3344386 L79.7878348,32.4181488 L79.9282696,36.1102068 L80.0347043,36.1718879 C80.9896609,36.7226126 82.5847043,37.6434242 84.8686174,37.6669217 C86.487313,37.6816077 88.1267043,37.0280812 89.2590522,35.9148831 C90.2509652,34.9382647 90.7757478,33.7031729 90.7757478,32.3373758 C90.7757478,29.3429024 88.6160087,28.2179556 86.3261826,27.0269217 L85.8960087,26.8022261 C83.551487,25.6317527 82.4487043,24.9209507 82.463487,23.4538203 C82.4738348,22.4551729 83.2307043,20.8793662 85.2160087,20.898458 C87.5250522,20.9219556 88.799313,22.6475594 89.0609652,23.7284483 L89.1082696,23.9252406 L89.6049652,23.8620908 L89.4349652,20.6649507 L89.3418348,20.601801 C87.9744435,19.6868638 86.2596609,19.572313 85.5855739,19.5664386 C84.2462696,19.5517527 82.9040087,19.957086 81.8987913,20.6737623" id="Fill-18"></path>
                        <path d="M113.386783,26.887258 L113.386783,26.887258 C113.367565,28.8449005 114.550174,29.8362048 116.466,30.802543 C116.466,30.802543 117.187391,31.1667556 117.18887,31.1667556 C118.698174,31.9216155 119.696,32.4180019 119.696,33.8263884 C119.696,34.0716444 119.642783,34.9234319 118.984957,35.5696155 C118.529652,36.0190068 117.898435,36.2407652 117.107565,36.2334222 C114.844348,36.2113932 114.013565,34.4622918 113.72087,33.4225237 L113.666174,33.2286686 L113.187217,33.3079729 L113.296609,36.2833546 L113.407478,36.3450357 C114.159913,36.7812097 115.422348,37.5096348 117.236174,37.5287266 C118.522261,37.5434126 119.827565,37.0205913 120.726348,36.1364947 C121.517217,35.3581372 121.935565,34.3727072 121.935565,33.2844754 C121.935565,30.8113546 120.211913,29.9140406 118.389217,28.963857 C118.389217,28.963857 118.068435,28.7979053 118.066957,28.7964367 C116.108261,27.8198184 115.423826,27.3807072 115.434174,26.2895382 C115.443043,25.5243981 116.019565,24.3921082 117.57913,24.4067942 C119.48313,24.425886 120.315391,25.7960889 120.491304,26.517171 L120.53713,26.7154319 L121.016087,26.6522821 L120.878609,24.0675478 L120.785478,24.0043981 C119.698957,23.2774415 118.337478,23.1863884 117.80087,23.1819826 C115.681043,23.1599536 113.413391,24.4523208 113.386783,26.887258" id="Fill-20"></path>
                        <path d="M124.034991,26.887258 C124.014296,28.8434319 125.198383,29.8362048 127.115687,30.802543 L127.837078,31.1667556 C129.346383,31.9216155 130.344209,32.4180019 130.344209,33.8263884 C130.344209,34.0716444 130.290991,34.9234319 129.633165,35.5696155 C129.177861,36.0190068 128.545165,36.2407652 127.755774,36.2334222 C125.492557,36.2113932 124.663252,34.4622918 124.369078,33.4225237 L124.312904,33.2286686 L123.833948,33.3079729 L123.946296,36.2833546 L124.055687,36.3450357 C124.808122,36.7812097 126.072035,37.5096348 127.884383,37.5287266 C129.17047,37.5434126 130.474296,37.0205913 131.374557,36.1364947 C132.165426,35.3581372 132.583774,34.3727072 132.583774,33.2844754 C132.583774,30.8113546 130.8616,29.9140406 129.037426,28.963857 C129.037426,28.963857 128.716643,28.7979053 128.715165,28.7964367 C126.75647,27.8198184 126.072035,27.3807072 126.083861,26.2895382 C126.088296,25.8078377 126.301165,25.3129198 126.65447,24.967799 C127.038817,24.5947749 127.582817,24.4009198 128.227339,24.4067942 C130.132817,24.425886 130.9636,25.7960889 131.139513,26.5186396 L131.186817,26.7154319 L131.664296,26.6522821 L131.526817,24.0675478 L131.433687,24.0043981 C130.347165,23.2774415 128.985687,23.1863884 128.449078,23.1819826 C126.329252,23.1599536 124.0616,24.4523208 124.034991,26.887258" id="Fill-22"></path>
                        <path d="M103.65687,23.3025546 L101.788348,23.315772 L101.817913,23.634458 L101.846,23.6476754 C101.942087,23.6946705 102.249565,23.9149604 102.249565,24.8078686 L102.259913,32.8396367 C102.259913,34.3934145 101.68487,36.2497237 98.9471304,36.2497237 C96.3631304,36.2497237 95.833913,34.7135691 95.833913,32.4078686 L95.8368696,23.315772 L92.8788696,23.315772 L92.9025217,23.6300522 L92.9291304,23.6447382 C93.1183478,23.7446029 93.4376522,24.1161585 93.4376522,24.87983 L93.4376522,32.4078686 C93.4376522,37.0824193 96.5316522,37.6228638 98.859913,37.6228638 C99.9952174,37.6228638 103.705652,37.2821488 103.705652,32.8734145 L103.716,23.3025546 L103.65687,23.3025546 Z" id="Fill-24"></path>
                        <path d="M163.029887,19.2797681 C164.7018,19.8128696 166.474235,20.5603865 168.336843,21.5942802 C163.767539,14.0985507 155.595713,5.9331401 147.579104,0.641777778 C149.645713,2.67578744 152.999887,7.1506087 153.870583,11.9485217 C157.1538,14.273314 160.253713,16.7464348 163.029887,19.2797681" id="Fill-26"></path>
                        <path d="M163.024122,19.2768309 C159.105252,18.0241159 155.765861,17.9609662 153.285339,18.2135652 C154.158991,16.18543 154.247687,14.042744 153.872209,11.9588019 C147.805426,7.66461836 141.116296,3.86975845 134.685861,1.16019324 C139.402991,4.33383575 144.60647,13.4905507 146.789861,23.3110725 C151.438991,21.9423382 158.602643,21.0009662 167.835861,24.0850242 C166.38273,22.4754396 164.766991,20.8643865 163.024122,19.2768309" id="Fill-29"></path>
                    </g>
                </g>
            </g>
        </g>
    </g>
</svg>