
<svg width="160px" height="38px" viewBox="0 0 160 38" version="1.1" xmlns="http://www.w3.org/2000/svg" xmlns:xlink="http://www.w3.org/1999/xlink">
    <g id="Symbols" stroke="none" stroke-width="1" fill="none" fill-rule="evenodd">
        <g id="Footer_1440_wide_restart" transform="translate(-477.000000, -372.000000)" fill="#FFFFFF">
            <g id="–Footer" transform="translate(0.000000, -1.000000)">
                <g id="partner" transform="translate(225.000000, 344.000000)">
                    <g id="Logo-swissRe" transform="translate(252.000000, 29.000000)">
                        <g id="Group-5">
                            <path d="M9.37717298,13.1597755 L28.099388,13.1597755 L28.099388,9.21184282 L9.37717298,9.21184282 L9.37717298,13.1597755 Z M23.7633967,28.2926704 L27.9370419,28.2926704 L27.9370419,16.1203015 L23.7633967,16.1203015 L23.7633967,28.2926704 Z M16.6353924,28.2926704 L20.8090376,28.2926704 L20.8090376,16.1203015 L16.6353924,16.1203015 L16.6353924,28.2926704 Z M9.54121009,28.2926704 L13.7131642,28.2926704 L13.7131642,16.1203015 L9.54121009,16.1203015 L9.54121009,28.2926704 Z M18.722215,0 C8.38280369,0 0,8.39380273 0,18.7488693 C0,29.1056295 8.38280369,37.5011259 18.722215,37.5011259 C29.0633174,37.5011259 37.44443,29.1056295 37.44443,18.7488693 C37.44443,8.39380273 29.0633174,0 18.722215,0 L18.722215,0 Z" id="Fill-40"></path>
                            <path d="M63.9580695,14.574663 L60.0380899,14.574663 C59.9941211,12.7167128 58.64462,11.6615596 56.8334473,11.6615596 C55.2725581,11.6615596 53.4613855,12.2526486 53.4613855,14.1122925 C53.4613855,18.3329052 64.5059872,15.5468266 64.5059872,22.4705283 C64.5059872,26.7368699 60.8362911,28.6778098 56.958589,28.6778098 C52.5312782,28.6778098 48.8632731,27.1162508 48.9072418,22.2588202 L53.080887,22.2588202 C53.080887,24.3708202 54.2190002,25.8053543 56.45464,25.8053543 C58.0983933,25.8053543 60.2900644,25.2159589 60.2900644,23.2292901 C60.2900644,18.7969694 49.412882,21.7964497 49.412882,14.6593463 C49.412882,10.4370399 53.3345527,8.79079775 56.958589,8.79079775 C60.7957046,8.79079775 63.7044038,10.6504417 63.9580695,14.574663" id="Fill-41"></path>
                            <path d="M80.1045636,28.2977514 L78.2071446,21.9651387 C77.7860597,20.5729463 77.5340852,19.1773665 77.239833,17.7834804 C77.0250628,18.7979856 76.8593346,19.8124908 76.5617002,20.7829607 L76.2674481,21.8381139 L74.4985531,28.2977514 L69.8175765,28.2977514 L65.476512,14.9974018 L69.9444093,14.9974018 L71.7995507,21.9651387 L72.0532163,22.9356087 L72.2629133,23.8654306 C72.3474685,24.414178 72.4320237,24.9629254 72.5165789,25.5116728 C72.7279669,23.9077723 73.1067743,22.3868613 73.5278592,20.8659503 L75.1716125,14.9974018 L79.7257562,14.9974018 L81.4540648,21.12 C81.8768408,22.5545341 82.171093,23.9924555 82.382481,25.4693312 L82.5076227,24.707182 C82.6767331,23.4437081 83.0132629,22.2174948 83.3937613,20.9506335 L85.0375146,14.9974018 L89.2957151,14.9974018 L84.7432625,28.2977514 L80.1045636,28.2977514 Z" id="Fill-42"></path>
                            <polygon id="Fill-43" points="91.277351 28.2977514 95.2396083 28.2977514 95.2396083 14.9974018 91.277351 14.9974018"></polygon>
                            <polygon id="Fill-44" points="91.1505182 12.5060209 95.3664411 12.5060209 95.3664411 9.21184282 91.1505182 9.21184282"></polygon>
                            <path d="M108.646852,18.5012555 L105.105679,18.5012555 C105.019433,17.5290919 104.134986,17.0260735 103.208261,17.0260735 C102.3644,17.0260735 101.14004,17.2784295 101.182318,18.3742306 C101.224595,19.221063 102.153011,19.4734191 102.829453,19.6410919 L104.346374,20.0221665 C106.664878,20.5285723 109.319911,21.5007358 109.319911,24.2868144 C109.319911,27.663982 105.863294,28.6784872 103.081428,28.6784872 C100.34353,28.6784872 97.6445276,27.4539676 97.4314485,24.4985225 L101.099454,24.4985225 C101.224595,25.6807006 102.153011,26.2700959 103.292816,26.2700959 C104.304096,26.2700959 105.61132,25.8483734 105.61132,24.6238537 C105.61132,22.0918249 97.6851141,23.9074335 97.6851141,18.7536115 C97.6851141,15.6321873 100.805201,14.6193758 103.417957,14.6193758 C105.821017,14.6193758 108.224076,15.5898457 108.604574,18.2065578 L108.646852,18.5012555 Z" id="Fill-45"></path>
                            <path d="M121.673597,18.5012555 L118.130733,18.5012555 C118.046178,17.5290919 117.161731,17.0260735 116.235006,17.0260735 C115.391145,17.0260735 114.170167,17.2784295 114.212445,18.3742306 C114.253031,19.221063 115.181448,19.4734191 115.856198,19.6410919 L117.373119,20.0221665 C119.691623,20.5285723 122.346656,21.5007358 122.346656,24.2868144 C122.346656,27.663982 118.890039,28.6784872 116.108173,28.6784872 C113.366893,28.6784872 110.669582,27.4539676 110.459885,24.4985225 L114.126199,24.4985225 C114.253031,25.6807006 115.181448,26.2700959 116.319561,26.2700959 C117.332532,26.2700959 118.636374,25.8483734 118.636374,24.6238537 C118.636374,22.0918249 110.711859,23.9074335 110.711859,18.7536115 C110.711859,15.6321873 113.831946,14.6193758 116.444702,14.6193758 C118.849453,14.6193758 121.252512,15.5898457 121.631319,18.2065578 L121.673597,18.5012555 Z" id="Fill-46"></path>
                            <path d="M137.019015,17.4461023 L134.068038,17.4461023 L134.068038,12.2109844 L137.059601,12.2109844 C138.747323,12.2109844 140.140793,12.9290983 140.140793,14.7870486 C140.140793,16.6873405 138.747323,17.4461023 137.019015,17.4461023 M140.306521,18.8382948 C142.667303,18.1659099 144.43958,16.7296821 144.43958,14.1112763 C144.43958,10.4360237 141.025241,9.21319775 137.861185,9.21319775 L129.978948,9.21319775 L129.978948,28.2974127 L134.068038,28.2974127 L134.068038,20.5726075 L137.27268,20.5726075 C140.938994,20.5726075 140.054547,25.6807006 140.644742,28.2974127 L145.11264,28.2974127 C143.090079,24.7068433 145.537107,19.8528 140.306521,18.8382948" id="Fill-47"></path>
                            <path d="M152.954121,17.0259041 C154.937786,17.0259041 155.313211,18.6704526 155.399458,20.2777405 L150.721863,20.2777405 C150.76245,18.8381254 151.183535,17.0259041 152.954121,17.0259041 M153.209478,26.2699265 C151.09898,26.2699265 150.721863,24.4543179 150.721863,22.6827445 L159.488548,22.6827445 C159.488548,18.4164029 157.973318,14.6192064 153.042058,14.6192064 C148.780476,14.6192064 146.632773,18.0793636 146.632773,22.0052786 C146.632773,26.1022537 149.074728,28.6783179 153.163818,28.6783179 C155.947375,28.6783179 158.815488,27.4978335 159.025185,24.3713283 L155.485704,24.3713283 C155.232038,25.6348022 154.51501,26.2699265 153.209478,26.2699265" id="Fill-48"></path>
                        </g>
                    </g>
                </g>
            </g>
        </g>
    </g>
</svg>