
<svg width="18px" height="32px" viewBox="0 0 18 32" version="1.1" xmlns="http://www.w3.org/2000/svg" xmlns:xlink="http://www.w3.org/1999/xlink">
    <g id="Symbols" stroke="none" stroke-width="1" fill="none" fill-rule="evenodd">
        <g id="XL/home/social_media_3er" transform="translate(-278.000000, -334.000000)" fill="#FFFFFF">
            <g id="XL/social_media_3er" transform="translate(0.000000, 71.000000)">
                <g id="kachel1">
                    <path d="M295.491525,263.230769 L295.491525,268.307692 L292.313089,268.307692 C291.152392,268.307692 290.369586,268.538462 289.964689,269 C289.559793,269.461538 289.357345,270.153846 289.357345,271.076923 L289.357345,274.711538 L295.289077,274.711538 L294.499529,280.403846 L289.357345,280.403846 L289.357345,295 L283.162429,295 L283.162429,280.403846 L278,280.403846 L278,274.711538 L283.162429,274.711538 L283.162429,270.519231 C283.162429,268.134615 283.864257,266.28525 285.267891,264.971154 C286.671525,263.657058 288.54081,263 290.875706,263 C292.859699,263 294.398305,263.076923 295.491525,263.230769" id="facebook"></path>
                </g>
            </g>
        </g>
    </g>
</svg>