
<svg width="33px" height="32px" viewBox="0 0 33 32" version="1.1" xmlns="http://www.w3.org/2000/svg" xmlns:xlink="http://www.w3.org/1999/xlink">
    <g id="Symbols" stroke="none" stroke-width="1" fill="none" fill-rule="evenodd">
        <g id="XL/home/social_media_3er" transform="translate(-601.000000, -334.000000)" fill="#FFFFFF">
            <g id="XL/social_media_3er" transform="translate(0.000000, 71.000000)">
                <g id="kachel2" transform="translate(338.000000, 0.000000)">
                    <g id="insta" transform="translate(263.000000, 263.000000)">
                        <path d="M16.0338983,10.4485753 C12.9661992,10.4485753 10.4706761,12.9388225 10.4706761,16.000036 C10.4706761,19.0612494 12.9661992,21.5514966 16.0338983,21.5514966 C19.1015974,21.5514966 21.5971205,19.0612494 21.5971205,16.000036 C21.5971205,12.9388225 19.1015974,10.4485753 16.0338983,10.4485753 M16.0338983,24.0683506 C11.5753936,24.0683506 7.94848981,20.4487551 7.94848981,16.000036 C7.94848981,11.5509573 11.5753936,7.93172135 16.0338983,7.93172135 C20.492403,7.93172135 24.1193068,11.5509573 24.1193068,16.000036 C24.1193068,20.4487551 20.492403,24.0683506 16.0338983,24.0683506" id="Fill-1"></path>
                        <path d="M24.8615502,7.7447191 C24.8435346,7.7447191 24.8291221,7.75946067 24.8291221,7.77707865 C24.8291221,7.81267416 24.8939783,7.81267416 24.8939783,7.77707865 C24.8939783,7.75946067 24.8795658,7.7447191 24.8615502,7.7447191 M24.8615502,9.90202247 C23.6872923,9.90202247 22.7321044,8.94885393 22.7321044,7.77707865 C22.7321044,6.60530337 23.6872923,5.65213483 24.8615502,5.65213483 C26.035808,5.65213483 26.990996,6.60530337 26.990996,7.77707865 C26.990996,8.94885393 26.035808,9.90202247 24.8615502,9.90202247" id="Fill-3"></path>
                        <path d="M8.10702723,2.51685393 C5.02743782,2.51685393 2.52218625,5.01680899 2.52218625,8.08988764 L2.52218625,23.9101124 C2.52218625,26.983191 5.02743782,29.4831461 8.10702723,29.4831461 L23.9607694,29.4831461 C27.0403588,29.4831461 29.5456104,26.983191 29.5456104,23.9101124 L29.5456104,8.08988764 C29.5456104,5.01680899 27.0403588,2.51685393 23.9607694,2.51685393 L8.10702723,2.51685393 Z M23.9607694,32 L8.10702723,32 C3.63663226,32 0,28.3706966 0,23.9101124 L0,8.08988764 C0,3.62894382 3.63663226,0 8.10702723,0 L23.9607694,0 C28.430804,0 32.0677966,3.62894382 32.0677966,8.08988764 L32.0677966,23.9101124 C32.0677966,28.3706966 28.430804,32 23.9607694,32 L23.9607694,32 Z" id="Fill-5"></path>
                    </g>
                </g>
            </g>
        </g>
    </g>
</svg>