
<svg width="34px" height="24px" viewBox="0 0 34 24" version="1.1" xmlns="http://www.w3.org/2000/svg" xmlns:xlink="http://www.w3.org/1999/xlink">
    <g id="Symbols" stroke="none" stroke-width="1" fill="none" fill-rule="evenodd">
        <g id="XL/home/social_media_3er" transform="translate(-935.000000, -342.000000)" fill="#FFFFFF" fill-rule="nonzero">
            <g id="XL/social_media_3er" transform="translate(0.000000, 71.000000)">
                <g id="kachel2" transform="translate(674.000000, 0.000000)">
                    <path d="M294.248996,274.726496 C293.873494,273.25641 292.712851,272.094017 291.24498,271.683761 C288.616466,271 278,271 278,271 C278,271 267.383534,271 264.720884,271.717949 C263.253012,272.128205 262.092369,273.25641 261.716867,274.760684 C261,277.42735 261,283 261,283 C261,283 261,288.57265 261.716867,291.239316 C262.092369,292.709402 263.253012,293.871795 264.720884,294.282051 C267.383534,295 278,295 278,295 C278,295 288.616466,295 291.279116,294.282051 C292.746988,293.871795 293.907631,292.74359 294.283133,291.239316 C295,288.57265 295,283 295,283 C295,283 294.965863,277.42735 294.248996,274.726496 Z M274.6,288.28 L274.6,277.72 L283.342857,283 L274.6,288.28 Z" id="youtube"></path>
                </g>
            </g>
        </g>
    </g>
</svg>